<?xml version="1.0" encoding="utf-8"?>
<!-- Generator: Adobe Illustrator 25.0.0, SVG Export Plug-In . SVG Version: 6.00 Build 0)  -->
<svg version="1.1" id="圖層_1" xmlns="http://www.w3.org/2000/svg" xmlns:xlink="http://www.w3.org/1999/xlink" x="0px" y="0px"
	 viewBox="0 0 60 60" style="enable-background:new 0 0 60 60;" xml:space="preserve">
<style type="text/css">
	.st0{display:none;fill:#FFFFFF;}
	.st1{fill:#FFFFFF;stroke:#000000;stroke-width:0.5;stroke-miterlimit:10;}
	.st2{fill:none;stroke:#000000;stroke-width:0.5;stroke-miterlimit:10;}
	.st3{fill:none;stroke:#000000;stroke-width:0.25;stroke-miterlimit:10;}
</style>
<image style="display:none;overflow:visible;" width="406" height="302" xlink:href="logo.png"  transform="matrix(0.2328 0 0 0.2328 -17.2681 -5.833)">
</image>
<rect class="st0" width="60" height="59.7"/>
<path class="st1" d="M13,59.1c-1,1.5-5.4,0.4-5.7-4.1V19.8c0,0-0.1-15.4,17.4-18.9c0,0,0.1,0,0.1,0.1l-1.5,4.2
	c-0.1,0.2,0.1,0.3,0.3,0.2l3.4-1.6c0,0,0.1,0,0.1,0.1l-0.9,3.8l4.6,1.2c0,0,2.4,0.9,3.3,2.8c0.9,1.9,4.2,1.2,5.7,1
	c1-0.1,4.4-0.3,2.9,2.8c-1,2.1-2.6,8-5.5,7.7c-2.9-0.3-14.6-0.8-15.6,8.7s5,14.7,4.3,16.4C25.2,49.4,18.7,50.6,13,59.1z"/>
<path class="st1" d="M49.1,16.3h4c0.1,0,0.2,0.1,0.2,0.2v3.5H57c0.1,0,0.2,0.1,0.2,0.2v4.1c0,0.1-0.1,0.2-0.2,0.2h-3.9v3.2
	c0,0.1-0.1,0.2-0.2,0.2h-3.7c-0.1,0-0.2-0.1-0.2-0.2v-3.2h-3.7c-0.1,0-0.2-0.1-0.2-0.2v-4c0-0.1,0.1-0.2,0.2-0.3l3.8,0l-0.1-3.6
	C48.9,16.4,49,16.3,49.1,16.3z"/>
<path class="st2" d="M32.7,13.3c0,0.8-0.3,1.3-0.9,1.3s-1.3-0.6-1.3-1.3s0.6-1.4,1.2-1.4C32.3,11.9,32.7,12.5,32.7,13.3z"/>
<path class="st1" d="M16.8,59.7l29,0c0,0,0.1,0,0.1,0c0.8-0.4,11.7-6.5,6.4-18.8c-5.5-12.7-16.5-15.3-18.8-15.7
	c-0.2,0-0.3,0.2-0.3,0.3l0.9,2.4c0,0.1,0,0.2-0.1,0.3c-0.8,0.5-3.8,2.6-4.1,5c-0.1,0.7-1.9,1.6-2.4,1.6c-0.5,0-0.5,1.2-0.5,1.6
	c0,1.4,0.3,4.9,2.7,4.8c2.1-0.1,3.9-0.4,4.2-0.4c0,0,0.1,0,0.1,0c0.5,0.3,4.3,2.3,1.3,6.5c-0.1,0.2,0,0.4,0.2,0.4
	c1.4-0.1,5.3-1.4,7.4-6c0,0-0.4,6.2-8.1,7.3c-7.5,1.1-11.3,0.7-18.5,10.4C16.5,59.5,16.6,59.7,16.8,59.7z"/>
<path class="st3" d="M31.2,33.8l2.6-0.2c0,0-0.9,1.7-1.8,1.5S31.2,33.8,31.2,33.8z"/>
</svg>
