<?xml version="1.0" encoding="utf-8"?>
<!-- Generator: Adobe Illustrator 25.0.0, SVG Export Plug-In . SVG Version: 6.00 Build 0)  -->
<svg version="1.1" id="圖層_1" xmlns="http://www.w3.org/2000/svg" xmlns:xlink="http://www.w3.org/1999/xlink" x="0px" y="0px"
	 viewBox="0 0 60 60" style="enable-background:new 0 0 60 60;" xml:space="preserve">
<style type="text/css">
	.st0{display:none;fill:#FFFFFF;}
	.st1{fill:#E94744;}
	.st2{fill:#C1AC86;stroke:#8F836F;stroke-width:0.5;stroke-miterlimit:10;}
	.st3{fill:#E3D4B9;stroke:#8F836F;stroke-width:0.5;stroke-miterlimit:10;}
</style>
<image style="display:none;overflow:visible;" width="406" height="302" xlink:href="logo.png"  transform="matrix(0.2328 0 0 0.2328 -17.2681 -5.833)">
</image>
<rect class="st0" width="60" height="59.7"/>
<path class="st1" d="M49.1,16.3h4c0.1,0,0.2,0.1,0.2,0.2v3.5H57c0.1,0,0.2,0.1,0.2,0.2v4.1c0,0.1-0.1,0.2-0.2,0.2h-3.9v3.2
	c0,0.1-0.1,0.2-0.2,0.2h-3.7c-0.1,0-0.2-0.1-0.2-0.2v-3.2h-3.7c-0.1,0-0.2-0.1-0.2-0.2v-4c0-0.1,0.1-0.2,0.2-0.3l3.8,0l-0.1-3.6
	C48.9,16.4,49,16.3,49.1,16.3z"/>
<path class="st2" d="M39.6,12.5c-1.4,0.2-4.7,0.9-5.7-1c-0.9-1.9-3.3-2.8-3.3-2.8l-4.1-1.1c-0.2-0.1-0.4-0.3-0.3-0.5l0.8-3.4
	c0,0,0-0.1-0.1-0.1l-3.4,1.6c-0.2,0.1-0.4,0-0.3-0.2l1.5-4.2c0,0,0-0.1-0.1-0.1C7.2,4.4,7.9,12.1,6.7,17.6c-1.4,6-0.9,30.3,0.1,34.6
	c0.1,0.3,0.3,0.5,0.4,0.9c0.7,1.4,4.9,7.4,5.8,6c5.7-8.4,11.5-10.5,12.1-11.8c0.7-1.6-4.7-6.1-3.6-15.6s12.7-8.9,15.6-8.7
	c2.9,0.3,4.5-5.6,5.5-7.7C44,12.2,40.6,12.4,39.6,12.5z M31.8,14.6c-0.6,0-1.3-0.6-1.3-1.3s0.6-1.4,1.2-1.4c0.6,0,1,0.6,1,1.4
	S32.4,14.6,31.8,14.6z"/>
<path class="st3" d="M52.3,40.9c-5.5-12.7-16.5-15.3-18.8-15.7c-0.2,0-0.3,0.2-0.3,0.3l0.9,2.4c0,0.1,0,0.2-0.1,0.3
	c-0.8,0.5-3.8,2.6-4.1,5c-0.1,0.7-1.9,1.6-2.4,1.6c-0.5,0-0.5,1.2-0.5,1.6c0,1.4,0.3,4.9,2.7,4.8c2.1-0.1,3.9-0.4,4.2-0.4
	c0,0,0.1,0,0.1,0c0.5,0.3,4.3,2.3,1.3,6.5c-0.1,0.2,0,0.4,0.2,0.4c1.4-0.1,5.3-1.4,7.4-6c0,0-0.4,6.2-8.1,7.3
	c-7.5,1.1-11.3,0.7-18.5,10.4c-0.1,0.2,0,0.4,0.2,0.4h29c0,0,0.1,0,0.1,0C46.8,59.2,57.7,53.2,52.3,40.9z M32.1,35
	c-0.9-0.2-0.9-1.2-0.9-1.2l2.6-0.2C33.9,33.6,33,35.2,32.1,35z"/>
</svg>
